<svg id="Layer_1" data-name="Layer 1" xmlns="http://www.w3.org/2000/svg" viewBox="0 0 1281.19 1005.05" width="100%" height="100%" style="position:fixed; top:0;left:0; height:100%; width:100%; user-select: none;enable-background:new 0 0 43.3 15;"><defs><style>.cls-1{fill:#fce8e8;}.cls-2{fill:#5673be;}.cls-3{fill:#2c50ae;opacity:0.54;}.cls-4{fill:#162857;}.cls-5{fill:#080d1c;opacity:0.26;}.cls-6{fill:#8aacab;}.cls-7{fill:#3c7573;opacity:0.49;}.cls-24,.cls-25,.cls-28,.cls-29,.cls-8{fill:none;stroke-miterlimit:10;}.cls-8{stroke:#1e3b3a;stroke-width:2px;opacity:0.78;}.cls-9{fill:#ffc3c4;}.cls-10,.cls-31{fill:#fe9d86;}.cls-11{fill:#663c16;}.cls-12{fill:#b37339;}.cls-13,.cls-20{fill:#0d4d4c;}.cls-14,.cls-40{fill:#331e0b;}.cls-15{fill:#60330b;}.cls-16{fill:#213371;}.cls-17{fill:#111a39;}.cls-18{fill:#8a266c;}.cls-19{fill:#36aeac;}.cls-20,.cls-40{opacity:0.36;}.cls-21{fill:#451336;}.cls-22{fill:#ef994c;}.cls-23{fill:#a75762;}.cls-24,.cls-25,.cls-28,.cls-29{stroke:#fff;}.cls-24{stroke-width:3px;}.cls-25,.cls-28,.cls-29{stroke-width:4px;}.cls-26{fill:#1d103b;}.cls-27{fill:#63918f;}.cls-28{opacity:0.5;}.cls-29,.cls-44{opacity:0.2;}.cls-30{fill:#657777;}.cls-31{opacity:0.46;}.cls-32{fill:#78dfde;}.cls-33{fill:#636e6e;}.cls-34{fill:#e0e0e0;}.cls-35{fill:#e39ea6;}.cls-36{fill:#d5bdc0;}.cls-37{fill:#ff8761;}.cls-38{fill:#5a3a1c;}.cls-39{fill:#784d26;opacity:0.71;}.cls-41{fill:#4a4062;}.cls-41,.cls-42{opacity:0.57;}.cls-42{fill:#3baeac;}.cls-43{fill:#fff;}.cls-44{fill:#bfbfbf;}.cls-45{fill:#e34635;opacity:0.13;}.cls-46{fill:#ba2025;}</style></defs><title>technologien</title><path class="cls-1" d="M548.42,571.24C542.05,469.5,580.87,365.54,650.8,297c103.05-100.94,254.33-116.92,393.36-111.72,83.89,3.13,168.64,12.37,247.57,43.26s152.21,85.34,195.49,163c23.58,42.33,39.58,92.72,77.27,120.69C1597.21,536.56,1640,538.78,1675,559c38,21.89,64.31,65.6,67.52,111.94,3.23,46.75-15.64,92.23-39.86,131.14-41.41,66.54-99.93,120.53-167.25,154.32-46.62,23.39-98.54,38.13-136.58,75.47-24.89,24.43-41.92,56.84-65.46,82.78-66.77,73.55-173.52,83.09-268.09,69.85-35.73-5-72.91-13.47-100.29-38.75-17.54-16.18-29.75-38.13-46.71-55-44.19-44-95.35-52.31-155.41-54.35-33.77-1.15-91-17.82-121.28-34.14-66.09-35.67-134-130.42-101.83-194.38C589.3,709.44,553.83,657.75,548.42,571.24Z" transform="translate(-531.5 -184.44)"/><path class="cls-2" d="M1561.63,1038.13h0c-3.06-15.05-20.12.22-25.19-7.55s6-13.5,20.95-12.2l.62.08q-1.38-6-3-11.6a9.07,9.07,0,0,0-6.72-6.37c-20.72-4.59-37.27,15.86-42.26,9-5.4-7.42,17.54-26.46,40.92-24.86a131.26,131.26,0,0,0-17.2-28.76,11.2,11.2,0,0,0-4.39-3c-33.77-15-52.88,18.51-60.13,13.33-8.63-6.19,18.57-28,38.83-33.13a78.2,78.2,0,0,0-22.15-9.06c-38.2-9.08-74.87,14.42-73.05,54-35.46,29.52-29.06,66.45-3.32,88.48-.4-.54-.81-1.1-1.18-1.69-14.78-23.79-1.64-64.9,8.78-59.48,9.52,4.95-16,56.42,13.51,74l-.12,0a84.23,84.23,0,0,0,13.58,4.27,101.22,101.22,0,0,0,20,2.43c-21.33-8.74-27.68-43.41-20.34-43.62,7.9-.23,8.25,25.34,27.53,37.82a26.44,26.44,0,0,0,18.42,3.89c4.88-.77,9.76-1.72,14.61-2.77,6.25-1.32,12.47-2.81,18.73-4.24-6.1-3.31-10-10.16-11.78-16.67-2.46-8.9-1-17.15,4-14.79,6.79,3.22,7.81,31.46,20.34,28.73h0a177.74,177.74,0,0,1,32.77-4A302,302,0,0,0,1561.63,1038.13ZM1494,986.89c-5.92,4.32-12,14.84-17,8.84-6.75-8,20.91-27.28,25.84-19.88C1505.61,980.12,1499.64,982.75,1494,986.89Zm26.39-19.31c1.16,4.95-11.33,10.29-12.48,4.1S1519.19,962.62,1520.35,967.58Zm-84.56-12.15c-7-6.94,22-29.62,27.27-23.1,3,3.78-3.69,7.76-9.16,11.45C1446.34,948.88,1441,960.64,1435.79,955.43Zm-9.6,16.11c-5.68-4.41,2.8-16.34,7.55-13S1431.87,976,1426.19,971.54Zm10.6,62.56c-7.07-1.3-5-15.8.72-15S1443.86,1035.4,1436.79,1034.1Zm50.74,33.09a2.7,2.7,0,0,1-.58.1c-2.68.2-6-3.28-9.06-8.33h0c-7.38-12.2-13.32-33.57-5.65-34.77,8.31-1.31,7.25,14.28,12.21,24.91C1488.05,1056.79,1492.77,1065.67,1487.53,1067.19Z" transform="translate(-531.5 -184.44)"/><path class="cls-3" d="M1467.3,1080.16a26.44,26.44,0,0,0,18.42,3.89c4.88-.77,9.76-1.72,14.61-2.77a136.84,136.84,0,0,0-13.38-14c-3-2.8-6-5.55-9.06-8.33h0a156.65,156.65,0,0,1-15.34-15.69c-16.9-20.57-24.19-49.3-17-74.91a72.7,72.7,0,0,1,36.3-44.29c-38.2-9.08-74.87,14.42-73.05,54-35.46,29.52-29.06,66.45-3.32,88.48-.4-.54-.81-1.1-1.18-1.69-14.78-23.79-1.64-64.9,8.78-59.48,9.52,4.95-16,56.42,13.51,74l-.12,0a84.23,84.23,0,0,0,13.58,4.27,101.22,101.22,0,0,0,20,2.43c-21.33-8.74-27.68-43.41-20.34-43.62C1447.67,1042.11,1448,1067.68,1467.3,1080.16Zm-31.51-124.73c-7-6.94,22-29.62,27.27-23.1,3,3.78-3.69,7.76-9.16,11.45C1446.34,948.88,1441,960.64,1435.79,955.43Zm-9.6,16.11c-5.68-4.41,2.8-16.34,7.55-13S1431.87,976,1426.19,971.54Zm10.6,62.56c-7.07-1.3-5-15.8.72-15S1443.86,1035.4,1436.79,1034.1Z" transform="translate(-531.5 -184.44)"/><path class="cls-4" d="M1332.11,972a78.53,78.53,0,0,1,13.18-2.57c4.46-.54,9-.79,13.44-.9a173.2,173.2,0,0,1,26.91,1.83,224.88,224.88,0,0,1,51.92,14.4,289.47,289.47,0,0,1,47.68,25,321,321,0,0,1,42.58,32.62c-14.53-10.4-29.3-20.33-44.62-29.3-3.86-2.19-7.67-4.46-11.58-6.54-1.95-1.05-3.88-2.13-5.85-3.16l-5.93-3-3-1.5-3-1.42-6-2.85c-4.07-1.74-8.08-3.61-12.21-5.18-2-.82-4.07-1.72-6.15-2.47l-6.21-2.3c-4.18-1.43-8.37-2.85-12.6-4.1a244.29,244.29,0,0,0-25.72-6.33,205.47,205.47,0,0,0-26.31-3.23c-4.42-.25-8.86-.29-13.3-.17-2.21.06-4.43.18-6.65.38A64.87,64.87,0,0,0,1332.11,972Z" transform="translate(-531.5 -184.44)"/><path class="cls-5" d="M1187.73,1163.93c39.57,1.27,78.75,7.11,118.21,10A795.68,795.68,0,0,0,1568,1149.43c10-2.68,7.86-15.61-2.65-15.67-55-.32-110,1.86-164.48,8.64-21.44,2.67-42.85,6.06-64.5,6.41-24.52.4-48.87-3.09-73.2-5.83-43-4.85-86.52-7.37-129.74-4.4-37.91,2.61-75.21,9.45-113.05,12.52-25,2-64.78-7-86.7.76,17.68,20.26,65.2,19.26,90.85,18.63C1079,1169.15,1133.19,1162.2,1187.73,1163.93Z" transform="translate(-531.5 -184.44)"/><path class="cls-6" d="M1787.19,984.47c-16.12,15-42.32,13.23-61.77,2.94s-34.26-27.31-50.42-42.25-35.56-28.57-57.55-29.24c-6.33-.19-13.24,1-17.51,5.67-10.07,11,1.85,30.67-6.44,43.08-4.23,6.35-12.76,8.64-20.32,7.64s-14.46-4.66-21.27-8.09q-16.74-8.44-34.13-15.45-7-2.82-14.11-5.4c-13.43-4.89-28.21-9.13-41.79-4.67-15,4.95-41.69,23.07-47.54-3.29-4-18,8.94-45.32,17.47-60.44,10.12-18,29.08-35.22,48.93-29.69,6.79,1.89,12.69,6.29,19.51,8.08,14.23,3.72,29-4.81,39.06-15.5s17.56-23.82,28.59-33.54c12.48-11,29.51-17,46-15.11s32.14,12,39.61,26.9c2.47,4.9,4.65,10.81,9.82,12.67,4.54,1.62,9.49-.67,13.65-3.12,15.54-9.09,29.39-21,45.44-29.16s35.61-12.27,52-4.74,26.09,29.88,15.82,44.67c-5.6,8.05-15.64,12.43-20.42,21-4.41,7.89-3.34,17.8.22,26.17.18.45.38.89.58,1.33,4,8.63,10.3,16,15.62,23.87,7.68,11.41,13.49,24.42,14.45,38.13S1797.27,975.12,1787.19,984.47Z" transform="translate(-531.5 -184.44)"/><path class="cls-7" d="M1787.19,984.47c-16.12,15-42.32,13.23-61.77,2.94s-34.26-27.31-50.42-42.25-35.56-28.57-57.55-29.24c-6.33-.19-13.24,1-17.51,5.67-10.07,11,1.85,30.67-6.44,43.08-4.23,6.35-12.76,8.64-20.32,7.64s-14.46-4.66-21.27-8.09q-16.74-8.44-34.13-15.45c10.55.77,21.28,3.16,29.5-2.9,10.59-7.82,9-23.77,13.2-36.27,5.84-17.56,24.49-28.69,43-29.79S1640,886.07,1655.6,896,1685,918.42,1700,929.25s34.75,20,51,11.44c11.91-6.3,17.61-20.44,18.91-33.86.74-7.72.36-15.48.09-23.24.18.45.38.89.58,1.33,4,8.63,10.3,16,15.62,23.87,7.68,11.41,13.49,24.42,14.45,38.13S1797.27,975.12,1787.19,984.47Z" transform="translate(-531.5 -184.44)"/><path class="cls-8" d="M1406.89,949.81a290,290,0,0,1,314.32-83.59" transform="translate(-531.5 -184.44)"/><path class="cls-8" d="M1618.51,850.68a468.8,468.8,0,0,1,130.13,77.52l-5.92-4.87" transform="translate(-531.5 -184.44)"/><path class="cls-8" d="M1568.51,856.17A168.63,168.63,0,0,0,1617.86,808" transform="translate(-531.5 -184.44)"/><path class="cls-8" d="M1457.23,904.57a346.48,346.48,0,0,1,132.14,26.62c.79.33,1.7.83,1.73,1.68" transform="translate(-531.5 -184.44)"/><path class="cls-9" d="M1448.14,730s-4.77,26.7-4.7,32.88c-2.52,1.67-21-2.29-30.59-4.73-2.25-.58-4-1.07-4.95-1.38,5.39-6,6.18-14.2,6.18-14.2.55-2.82,22.46-9.29,30.84-11.68Z" transform="translate(-531.5 -184.44)"/><path class="cls-10" d="M1450.29,730.27c-6.32,7.89-20.28,15.92-24.7,19.24-4.11,3.09-8.37,5.94-12.74,8.63-2.25-.58-4-1.07-4.95-1.38,5.39-6,6.18-14.2,6.18-14.2C1414.63,739.74,1441.92,732.65,1450.29,730.27Z" transform="translate(-531.5 -184.44)"/><path class="cls-11" d="M1085.69,1034,1067,1066.22l-47.35,81.44-6.23.66,42.7-95.35,1.84-4.12C1062.66,1038.3,1085.69,1034,1085.69,1034Z" transform="translate(-531.5 -184.44)"/><path class="cls-12" d="M1065.66,1041.3l-18.84,25.64-67,91.25h-6.91l60.61-103.91c2.52-4.33,8-7.26,13.78-9.22A85.06,85.06,0,0,1,1065.66,1041.3Z" transform="translate(-531.5 -184.44)"/><path class="cls-10" d="M1341.08,795.28S1289,824,1277.39,827.92c-19.35,1.1-67.6,3.22-91.39,10.55-14.53-14.7-48.07.22-50.25,7.55.59,12.32,53.27,6.29,53.27,6.29s66.81,6.3,98.9-1.85,94.2-36.37,94.2-36.37l-15.64-27.36Z" transform="translate(-531.5 -184.44)"/><path class="cls-9" d="M1406.31,659.18s5.53,37.62-19.36,38.18c1.65,24.89-.56,43.42,33.47,45.91,11.61-.55,24.61-4.7,32.91-21.57l1.38-5s11.9-4.7,11.9-12.45a11.63,11.63,0,0,0-17.7-9.54s6.08-7.61-.83-17.57S1425.12,639,1406.31,659.18Z" transform="translate(-531.5 -184.44)"/><path class="cls-11" d="M1392.29,1148.11l-10-.92-79.24-115.14-1.41-2-5.59-8.11s9.69-9.1,25,.6a49.53,49.53,0,0,1,8.29,6.74l17.3,32.66Z" transform="translate(-531.5 -184.44)"/><path class="cls-13" d="M1331.15,841.82c22.77-4.64,44.3-8.64,64.2-20.64,9.33-5.63,18.62-12.5,23-22.47s2-23.68-7.78-28.59c-5.79-2.93-12.71-2.22-19.09-1-20.51,3.87-48.74,18.5-65.75,30.6C1325.75,799.7,1318.7,827.72,1331.15,841.82Z" transform="translate(-531.5 -184.44)"/><path class="cls-14" d="M1085.69,1034,1067,1066.22,1056.1,1053l1.84-4.12C1062.66,1038.3,1085.69,1034,1085.69,1034Z" transform="translate(-531.5 -184.44)"/><path class="cls-15" d="M1065.66,1041.3l-18.84,25.64-13.35-12.66,13.78-9.22A85.06,85.06,0,0,1,1065.66,1041.3Z" transform="translate(-531.5 -184.44)"/><path class="cls-14" d="M1346.61,1061.89l-43.54-29.84-1.41-2,19.36-7.51a49.53,49.53,0,0,1,8.29,6.74Z" transform="translate(-531.5 -184.44)"/><path class="cls-12" d="M1440.94,1158.19H1430.1L1328,1035.76l-3.21-3.84a15.8,15.8,0,0,1,3.87-2.89c3.94-2.19,10.81-4.18,20.32-.23a49.52,49.52,0,0,1,12.32,7.71l21.67,33.1Z" transform="translate(-531.5 -184.44)"/><path class="cls-16" d="M1380.31,936.21c-.94,26.73-25.59,49.29-51.09,57.34-17.31,5.47-36.14,3.49-53.76-.85-61.35-15.13-97.24-52.24-145.76-92.71-21.1,33.34-56.26,65.48-88.53,88.18-11.8,8.31-24.72,14.86-37.59,21.4l-41.87,21.23a13.44,13.44,0,0,1-5.94,1.93c-2.32,0-4.48-1.15-6.45-2.39a52.4,52.4,0,0,1-4.44-3.06,63.24,63.24,0,0,1-13.12-13.91q61.61-62.76,127.55-121c24.76-21.89,52.54-44.37,85.54-46.18,13-.72,26,1.91,38.74,4.84,47.36,10.93,92.14,34.55,136.62,54.17,16,7.06,32.38,17.77,48.69,25.88C1372.71,932.93,1376.51,934.68,1380.31,936.21Z" transform="translate(-531.5 -184.44)"/><path class="cls-15" d="M1383,1069.61l-55-33.85-3.21-3.84a15.8,15.8,0,0,1,3.87-2.89l20.32-.23a49.52,49.52,0,0,1,12.32,7.71Z" transform="translate(-531.5 -184.44)"/><path class="cls-17" d="M1380.31,936.21c-.94,26.73-25.59,49.29-51.09,57.34-17.31,5.47-36.14,3.49-53.76-.85-61.35-15.13-97.24-52.24-145.76-92.71-21.1,33.34-56.26,65.48-88.53,88.18-11.8,8.31-24.72,14.86-37.59,21.4l-41.87,21.23a13.44,13.44,0,0,1-5.94,1.93c-2.32,0-4.48-1.15-6.45-2.39a52.4,52.4,0,0,1-4.44-3.06c12.34-7.61,27.83-12.12,40.21-19.08,30.59-17.16,58.28-39.11,83.81-63.07,14.12-13.26,27.6-27.19,40.67-41.49,9.82-10.77,22.24-22.76,36.58-20.13,9.87,1.81,17,10.15,23.55,17.77,15.46,18,32.67,35,53.79,45.78,24,12.19,51.62,15.47,78.5,14.5,15.12-.55,30.92-2.63,43.3-11.34,8.26-5.81,15-14.5,23.61-19.18C1372.71,932.93,1376.51,934.68,1380.31,936.21Z" transform="translate(-531.5 -184.44)"/><path class="cls-18" d="M960.53,1032c-2.55,6.83-6,12.13-8.86,18.85-2.06,4.94-4.44,10.11-8.91,13.05-6.57,4.31-15.4,2.35-22.52-1s-14-7.9-21.79-8.6c-3.84-.34-7.69.29-11.54.58a64.57,64.57,0,0,1-38.06-9.23,9.24,9.24,0,0,1-3.47-3.38,3.22,3.22,0,0,1-.23-2.51,5.12,5.12,0,0,1,2.36-2.53c4.25-2.64,9.32-3.55,14.25-4.43,24.13-4.3,48-8.67,70.85-20.77,3.58-1.89,7.92,1.61,11.35,3.78a61.51,61.51,0,0,1,9.72,7.61,59.85,59.85,0,0,1,7.08,8" transform="translate(-531.5 -184.44)"/><path class="cls-19" d="M1424.3,865.46c-13.36,27.61-29.65,52.61-42.89,80.28-32.93-.71-64.86-19.89-81-48.63l.66-1.2,35.89-65.5c9-16.45,18.12-33,30.24-47.35,11.55-13.66,26.76-25.52,44.53-27.69.7-.08,1.4-.14,2.13-.16,4.64-.21,9.71.56,14.24.77,5.21.24,10.7,1.65,14.21,5.52,3.74,4.12,4.44,10.1,4.61,15.67C1447.85,807.84,1437.66,837.84,1424.3,865.46Z" transform="translate(-531.5 -184.44)"/><path class="cls-20" d="M1424.3,865.46c-13.36,27.61-29.65,52.61-42.89,80.28-32.93-.71-64.86-19.89-81-48.63l.66-1.2,22.74,4.42c8.67,1.69,19.14,2.81,24.94-3.85,5-5.77,4.15-15.06,9.22-20.77,3.17-3.57,8-5,12.36-7,22.84-10.25,34.18-36.44,37.75-61.22,2.17-15.07,2-34.88,5.78-52.31,4.64-.21,9.71.56,14.24.77,5.21.24,10.7,1.65,14.21,5.52,3.74,4.12,4.44,10.1,4.61,15.67C1447.85,807.84,1437.66,837.84,1424.3,865.46Z" transform="translate(-531.5 -184.44)"/><path class="cls-21" d="M960.76,1031.46a59.85,59.85,0,0,0-7.08-8c-8.52,3.89-15.51,11.71-26,17.24-7.85,4.13-17,4.86-25.83,5.52l-28.69,2.15c-8.46.63-17.65,1.09-24.7-3.64a25.92,25.92,0,0,1-3-2.42,9.24,9.24,0,0,0,3.47,3.38,64.57,64.57,0,0,0,38.06,9.23c3.85-.29,7.7-.92,11.54-.58,7.82.7,14.66,5.29,21.79,8.6s16,5.28,22.52,1c4.47-2.94,6.85-8.11,8.91-13.05,2.83-6.72,6.31-12,8.86-18.85Z" transform="translate(-531.5 -184.44)"/><path class="cls-22" d="M1496.79,774.79a18.6,18.6,0,0,1-1,5s-110.47,231.52-120.34,248.11c-6.29,10.6-20.15,9.64-29.34,7.56a184.38,184.38,0,0,0-28.43-4.16c-56.11-3.8-215.89-5.88-256,11.54-51.56,22.4-92.94,32.92-98.52,20.92a53.68,53.68,0,0,1-4-13,34,34,0,0,1-.48-4.89,30.53,30.53,0,0,1,.21-4.43,27,27,0,0,1,3.12-9.76c9.29-17.15,36.57-26.05,64-39.48,15-7.43,35.28-12.1,58.56-14.78,41.46-4.77,92.26-3.24,138.66.1,61.06,4.41,114.48,12,128.9,12.47,23.84-34.59,84.69-183.6,115.78-224.58,5.69-7.52,10.39-11.4,13.68-10.27,8.66,3,12.61,7.68,14.25,12.15a18,18,0,0,1,1,7.48Z" transform="translate(-531.5 -184.44)"/><rect class="cls-23" x="215.68" y="227.82" width="575.04" height="364.69"/><path class="cls-23" d="M1524.69,466.77a14.11,14.11,0,0,1,9.77-2.85,67.49,67.49,0,0,0-6.5-26.12,14.13,14.13,0,0,1-17.06-22.35,67.59,67.59,0,0,0-23.49-13.14,14.13,14.13,0,0,1-28-2.88,67.39,67.39,0,0,0-21.91,6.18,14.13,14.13,0,0,1-22.34,17.06,67.55,67.55,0,0,0-11.57,19.06,14.13,14.13,0,0,1-4.8,27.81,67.47,67.47,0,0,0,6.52,26.57,14.13,14.13,0,0,1,17.06,22.35,67.52,67.52,0,0,0,23.92,13.28,14.13,14.13,0,0,1,28.1,2.69,67.46,67.46,0,0,0,21.42-6.13,14.13,14.13,0,0,1,22.34-17.06,67.67,67.67,0,0,0,11.74-19.52,14.13,14.13,0,0,1-5.17-25Zm-39.87,24a30,30,0,1,1,5.64-42A30,30,0,0,1,1484.82,490.79Z" transform="translate(-531.5 -184.44)"/><circle class="cls-24" cx="1466.62" cy="466.96" r="34.28" transform="translate(-596.99 429.7) rotate(-23.15)"/><path class="cls-23" d="M1783.44,627a32.63,32.63,0,0,1,29.25-32.46,155.63,155.63,0,0,0-24.67-57,32.63,32.63,0,0,1-47.39-44.56,155.87,155.87,0,0,0-48.88-19.36,32.62,32.62,0,0,1-64.89,0,155.75,155.75,0,0,0-47.9,18.76,32.62,32.62,0,0,1-47.79,44.3,156,156,0,0,0-25.27,57.88,32.62,32.62,0,0,1,0,64.9,156,156,0,0,0,25.27,57.89,32.62,32.62,0,0,1,47.79,44.3,155.5,155.5,0,0,0,47.9,18.76,32.62,32.62,0,0,1,64.89,0A156.09,156.09,0,0,0,1740.63,761,32.63,32.63,0,0,1,1788,716.43a155.79,155.79,0,0,0,24.67-57A32.62,32.62,0,0,1,1783.44,627ZM1659.3,696.18A69.23,69.23,0,1,1,1728.53,627,69.24,69.24,0,0,1,1659.3,696.18Z" transform="translate(-531.5 -184.44)"/><circle class="cls-25" cx="1127.8" cy="442.5" r="79.78"/><path class="cls-26" d="M1493.34,703.37c-7.32,20.39-23.25,34.85-44.55,33.72l-1.69-.12c.46-3-.86-10.43.36-14.65,1.14-4,2.24-6.08,2.67-7.49,5.8,0,11.79-4,12.65-9.77s-5.16-11.78-10.63-9.88c-2.27.79-4,2.62-5.62,4.38a56,56,0,0,0-14.79-24c-8.26-7.89-16.14-9.65-22.54-19.11.11,2.86-2.37,9.64-6.15,9.2-2.89-.35-5.18-8.94-5.58-11.16a26.82,26.82,0,0,1,7-23.2,17.32,17.32,0,0,1,2.32-2c10.41-7.62,31.23-8.46,43.24-6.06,11.06,2.22,20.18,6.41,28.08,17,4.08,5.5,5.51,15.86,4.08,22.38-.38,1.73-1.18,3.63-.33,5.19.61,1.12,1.88,1.68,3,2.28,5.51,2.93,9.16,8.73,10.38,14.85S1495.45,697.5,1493.34,703.37Z" transform="translate(-531.5 -184.44)"/><rect class="cls-27" x="737.95" y="112.61" width="107.88" height="86.3" rx="16"/><polyline class="cls-25" points="782.1 144.7 763.41 154.93 782.1 164.5"/><polyline class="cls-25" points="801.69 144.7 820.37 154.93 801.69 164.5"/><line class="cls-25" x1="797.52" y1="136.62" x2="784.33" y2="174.91"/><rect class="cls-28" x="140.03" y="512.9" width="52.35" height="41.88" rx="16"/><rect class="cls-29" x="519.24" y="128.07" width="77.9" height="62.32" rx="16"/><polygon class="cls-30" points="710.56 665.95 572.37 665.95 577.13 661.17 710.56 661.17 710.56 665.95"/><path class="cls-9" d="M1383.1,819.24s-4.94,2.24-12.77,5.66c-19.9,8.67-58.39,24.85-81.43,30.71-32.09,8.15-98.9,1.85-98.9,1.85s-52.68,6-53.27-6.28a8.55,8.55,0,0,1,1.34-2.46c6-8.15,29.36-21.63,47.93-10.26,23.79-7.32,73-4.29,92.37-5.39,11.6-3.88,63.69-32.64,63.69-32.64l25.4-8.55Z" transform="translate(-531.5 -184.44)"/><path class="cls-31" d="M1371.45,817a41.29,41.29,0,0,1-1.12,7.93c-19.9,8.67-58.39,24.85-81.43,30.71-32.09,8.15-98.9,1.85-98.9,1.85s-52.68,6-53.27-6.28a8.55,8.55,0,0,1,1.34-2.46c8.56-1.15,17.38-.86,26-.56l62.81,2.19c19.91.7,40.6,1.25,58.83-6.78,12.85-5.66,28.32-15.36,38.45-25.08,9.29-8.91,18.8-18.25,32.75-18.35,3.44,0,7,.69,9.7,2.86C1370.62,806.22,1371.66,811.87,1371.45,817Z" transform="translate(-531.5 -184.44)"/><path class="cls-32" d="M1419.35,803.86c-4.4,10-13.68,16.84-23,22.47-19.9,12-41.42,16-64.2,20.65-6.75-7.65-7.77-19.4-7.28-28.55a78.6,78.6,0,0,1,1.87-13.58c17-12.09,45.25-26.72,65.77-30.6,6.06-1.14,12.61-1.83,18.22.62.29.12.58.26.86.4C1421.3,780.18,1423.75,793.88,1419.35,803.86Z" transform="translate(-531.5 -184.44)"/><polygon class="cls-33" points="577.13 661.17 572.37 665.95 539.26 544.31 544.9 542.78 577.13 661.17"/><rect class="cls-34" x="244.44" y="258.47" width="68.27" height="7.94"/><rect class="cls-34" x="331.81" y="318.27" width="49.29" height="7.94"/><rect class="cls-35" x="388.78" y="318.27" width="32.71" height="7.94"/><rect class="cls-35" x="245.22" y="468.66" width="32.71" height="7.94"/><rect class="cls-34" x="427.95" y="318.27" width="78.97" height="7.94"/><rect class="cls-34" x="245.22" y="438.53" width="50.74" height="7.94"/><rect class="cls-34" x="315.95" y="498.56" width="30.98" height="7.94"/><rect class="cls-35" x="245.22" y="498.56" width="61.37" height="7.94"/><rect class="cls-34" x="245.22" y="528.46" width="33.85" height="7.94"/><rect class="cls-36" x="325.99" y="258.47" width="48.46" height="7.94"/><rect class="cls-35" x="325.99" y="348.17" width="48.46" height="7.94"/><rect class="cls-34" x="301.76" y="378.07" width="20.71" height="7.94"/><rect class="cls-36" x="281.05" y="408.41" width="46.51" height="7.94"/><rect class="cls-35" x="334.59" y="408.41" width="64.21" height="7.94"/><rect class="cls-35" x="245.22" y="378.29" width="48.46" height="7.94"/><rect class="cls-35" x="245.22" y="408.41" width="28.76" height="7.94"/><rect class="cls-37" x="332.23" y="378.29" width="27.13" height="7.94"/><rect class="cls-37" x="246.03" y="558.36" width="27.13" height="7.94"/><rect class="cls-36" x="245.02" y="318.27" width="48.46" height="7.94"/><rect class="cls-36" x="287.88" y="468.66" width="48.46" height="7.94"/><rect class="cls-36" x="288.48" y="528.46" width="48.46" height="7.94"/><rect class="cls-36" x="374.57" y="528.46" width="48.46" height="7.94"/><rect class="cls-36" x="245.02" y="348.17" width="69.08" height="7.94"/><rect class="cls-36" x="568.74" y="258.47" width="48.46" height="7.94"/><rect class="cls-36" x="396.11" y="558.36" width="48.46" height="7.94"/><rect class="cls-36" x="632.28" y="258.47" width="32.44" height="7.94"/><rect class="cls-36" x="742.04" y="288.37" width="32.44" height="7.94"/><rect class="cls-35" x="387.5" y="258.47" width="61.74" height="7.94"/><rect class="cls-35" x="628.06" y="288.37" width="61.74" height="7.94"/><rect class="cls-35" x="552.34" y="318.27" width="61.74" height="7.94"/><rect class="cls-35" x="471.96" y="348.17" width="61.74" height="7.94"/><rect class="cls-36" x="621.85" y="318.27" width="43.89" height="7.94"/><rect class="cls-37" x="494.91" y="258.47" width="61.74" height="7.94"/><rect class="cls-37" x="424.45" y="348.17" width="36.2" height="7.94"/><rect class="cls-37" x="396.11" y="469.1" width="36.2" height="7.94"/><rect class="cls-34" x="460.66" y="258.47" width="22.6" height="7.94"/><rect class="cls-34" x="387.5" y="348.17" width="22.6" height="7.94"/><rect class="cls-34" x="704.7" y="288.37" width="22.6" height="7.94"/><rect class="cls-35" x="244.44" y="288.37" width="35.36" height="7.94"/><rect class="cls-35" x="338.78" y="438.75" width="27.91" height="7.94"/><rect class="cls-35" x="288.48" y="288.37" width="11.41" height="7.94"/><rect class="cls-34" x="522.84" y="288.37" width="94.36" height="7.94"/><rect class="cls-34" x="432.31" y="528.46" width="94.36" height="7.94"/><rect class="cls-37" x="308.28" y="288.37" width="11.65" height="7.94"/><rect class="cls-35" x="483.26" y="288.37" width="30.87" height="7.94"/><rect class="cls-37" x="514.13" y="318.27" width="30.87" height="7.94"/><rect class="cls-37" x="355.39" y="558.36" width="30.87" height="7.94"/><rect class="cls-35" x="409.4" y="288.37" width="65.68" height="7.94"/><rect class="cls-35" x="348.26" y="469.1" width="38.37" height="7.94"/><rect class="cls-35" x="345.79" y="528.46" width="19.19" height="7.94"/><rect class="cls-36" x="377.48" y="288.37" width="22.6" height="7.94"/><rect class="cls-37" x="301.41" y="318.27" width="22.6" height="7.94"/><rect class="cls-37" x="305.91" y="438.75" width="22.6" height="7.94"/><rect class="cls-35" x="329.48" y="288.37" width="39.38" height="7.94"/><polygon class="cls-32" points="600.41 573.23 600.41 611.79 634 591.89 600.41 573.23"/><polygon class="cls-37" points="669.17 613.91 681.45 628.17 687.53 610.12 669.17 613.91"/><polygon class="cls-2" points="624.54 539.41 634.89 561.26 648.59 540.97 624.54 539.41"/><path class="cls-38" d="M1374.32,1022.93c9.23-15.53,109.59-221.69,122.47-248.14a18.6,18.6,0,0,1-1,5s-110.47,231.52-120.34,248.11c-6.29,10.6-20.15,9.64-29.34,7.56a184.38,184.38,0,0,0-28.43-4.16c-56.11-3.8-215.89-5.88-256,11.54-51.56,22.4-92.94,32.92-98.52,20.92a53.68,53.68,0,0,1-4-13,59.28,59.28,0,0,0,2.89,8c5.59,12,47,1.48,98.53-20.92,40.1-17.42,199.89-15.34,256-11.54a184.07,184.07,0,0,1,28.42,4.16C1354.17,1032.56,1368,1033.52,1374.32,1022.93Z" transform="translate(-531.5 -184.44)"/><path class="cls-39" d="M1496.79,774.79c-12.88,26.45-113.24,232.61-122.47,248.14-6.3,10.59-20.15,9.63-29.35,7.55a184.07,184.07,0,0,0-28.42-4.16c-56.11-3.8-215.9-5.88-256,11.54-51.56,22.4-92.94,32.92-98.53,20.92a59.28,59.28,0,0,1-2.89-8,34,34,0,0,1-.48-4.89,30.53,30.53,0,0,1,.21-4.43l.31.13c16.7,6.16,32.52-.57,48.19-6.83,94.6-37.83,200-37,301.46-27.47,23.36,2.2,49.55,4,67.54-11,14-11.76,19.16-30.75,24-48.4,18.25-66.38,45.92-134.52,95.34-180.62l.09.07a18,18,0,0,1,1,7.48Z" transform="translate(-531.5 -184.44)"/><path class="cls-40" d="M1026,992.22c15-7.43,35.28-12.1,58.56-14.78-12.21,4.66-23.37,11.83-34.75,18.33A364.66,364.66,0,0,1,962,1031.7C971.27,1014.55,998.55,1005.65,1026,992.22Z" transform="translate(-531.5 -184.44)"/><path class="cls-40" d="M1436.32,840.36c-14,24.8-20.22,52.07-32,78-6.84,15.17-14.2,30.29-24.54,43.33s-14.65,30.34-30.71,34.73c-11,3-22.61,2.84-33.95,1.67-31.27-3.23-61.26-13.85-92-20.56,61.06,4.41,114.48,12,128.9,12.47,23.84-34.59,84.69-183.6,115.78-224.58.09.46.17.94.24,1.41C1472.39,795,1450.29,815.57,1436.32,840.36Z" transform="translate(-531.5 -184.44)"/><path class="cls-41" d="M1493.34,703.37c-7.32,20.39-23.25,34.85-44.55,33.72,4.28-4.3,10-7.43,14.57-11.57,12.63-11.41,15.87-31.9,7.36-46.65a11.7,11.7,0,0,0-3.68-4.27c-4.19-2.63-9.71-.22-14.59-1-5.38-.88-9.36-5.61-11.63-10.57-8.07-17.62-11-25.47-30.09-32.27-1.38-.49-2.71-1-4-1.46,10.41-7.62,31.23-8.46,43.24-6.06,11.06,2.22,20.18,6.41,28.08,17,4.08,5.5,5.51,15.86,4.08,22.38-.38,1.73-1.18,3.63-.33,5.19.61,1.12,1.88,1.68,3,2.28,5.51,2.93,9.16,8.73,10.38,14.85S1495.45,697.5,1493.34,703.37Z" transform="translate(-531.5 -184.44)"/><path class="cls-42" d="M1419.35,803.86c-4.4,10-13.68,16.84-23,22.47-19.9,12-41.42,16-64.2,20.65-6.75-7.65-7.77-19.4-7.28-28.55a35.94,35.94,0,0,0,4.7,2,28.09,28.09,0,0,0,21.51-1.81c5.57-2.94,10.13-7.77,16.09-9.82,4.38-1.5,9.14-1.37,13.71-2.14,9.54-1.63,17.89-7.77,23.07-15.82,3-4.57,4.4-10.68,6.78-16,.29.12.58.26.86.4C1421.3,780.18,1423.75,793.88,1419.35,803.86Z" transform="translate(-531.5 -184.44)"/><path class="cls-43" d="M1271.47,608h87.77c4.62-4.78,2.7-9.46-1.47-12.34-4.42-3-11.36-4.05-15.75-1,2.43-4.12-2.6-13.21-9.63-15.39s-16,.18-19.46,6.66c0-6.78-5.09-15.75-20.37-15.75-.6,0-1.19,0-1.76,0C1261.14,571.62,1271.47,608,1271.47,608Z" transform="translate(-531.5 -184.44)"/><path class="cls-44" d="M1271.47,608h87.77c4.62-4.78,2.7-9.46-1.47-12.34-5.32,1.63-10.52,3.75-16,4.75-9.7,1.76-19.64-.11-29.32-2-7.87-1.52-16.62-3.62-20.88-10.42-2.67-4.25-2.75-9.18-2-14a20.53,20.53,0,0,1,1.24-3.8C1261.14,571.62,1271.47,608,1271.47,608Z" transform="translate(-531.5 -184.44)"/><path class="cls-43" d="M756.6,399.43H600.76c-8.21-8.48-4.8-16.81,2.62-21.91,7.84-5.4,20.15-7.19,28-1.77-4.31-7.32,4.63-23.46,17.11-27.34s28.37.33,34.55,11.84c0-12.05,9-28,36.16-28,1.06,0,2.11,0,3.12.07C774.93,334.79,756.6,399.43,756.6,399.43Z" transform="translate(-531.5 -184.44)"/><path class="cls-44" d="M756.6,399.43H600.76c-8.21-8.48-4.8-16.81,2.62-21.91,9.43,2.89,18.67,6.66,28.37,8.42,17.21,3.14,34.87-.19,52-3.51,14-2.7,29.52-6.43,37.08-18.49,4.73-7.55,4.87-16.31,3.6-24.84a36.39,36.39,0,0,0-2.21-6.76C774.93,334.79,756.6,399.43,756.6,399.43Z" transform="translate(-531.5 -184.44)"/><circle class="cls-45" cx="894.48" cy="512.39" r="13"/><path class="cls-46" d="M1391.52,717.52a8.53,8.53,0,0,0,6,1.89,9.44,9.44,0,0,0,3-.93c.48-.22.93-.54,1.41-.8s.89-.64,1.37-.94c-.36.43-.75.82-1.14,1.23a13.39,13.39,0,0,1-1.36,1,7.8,7.8,0,0,1-3.22,1.16A6.84,6.84,0,0,1,1391.52,717.52Z" transform="translate(-531.5 -184.44)"/></svg>