<svg version="1.1" id="Ebene_1" xmlns="http://www.w3.org/2000/svg" xmlns:xlink="http://www.w3.org/1999/xlink" x="0px" y="0px" width="100%" height="100%"
	 viewBox="0 0 43.3 15" style="position:fixed; top:0;left:0; height:100%; width:100%; user-select: none;enable-background:new 0 0 43.3 15;" xml:space="preserve">
<style type="text/css">
	.st0{fill:#fff;}
</style>
<g>
	<path class="st0" d="M0.3,1.7c0,0,0.1-0.1,0.1-0.1c0,0,0.1,0,0.2,0c0,0,0.1,0,0.2,0c0.1,0,0.2,0,0.3,0s0.2,0,0.5,0s0.5,0,0.7,0
		s0.5,0,0.7,0c0.2,0,0.4,0,0.5,0c0.1,0,0.2,0,0.4,0c0.2,0,0.4,0,0.5,0c0.1,0,0.2,0,0.3,0c0.1,0,0.2,0,0.2,0c0.1,0,0.2,0,0.2,0.1
		c0,0,0.1,0,0.1,0.1c0,0,0,0,0,0c0,0,0,0,0,0.1c0,0-0.1,0.1-0.1,0.1C5.1,1.8,4.9,1.8,4.7,1.9C4.4,2,4.2,2,3.9,2c-0.1,0-0.1,0-0.2,0
		c0,0-0.1,0-0.1,0.1c0,0.1-0.1,0.2-0.1,0.3c0,0.1,0,0.3,0,0.4c0,0,0,0.1,0,0.2s0,0.1,0,0.2c0,0.2,0,0.4,0,0.7c0,0.3,0,0.4,0,0.5
		c0,0,0,0.1,0,0.2c0,0.1,0,0.3,0,0.4c0,0.2,0,0.4,0,0.6c0,0.2,0,0.3,0,0.3c0,0.1,0,0.3-0.1,0.6c0,0.3-0.1,0.4-0.1,0.5
		c0,0.1,0,0.2,0,0.3c0,0.1,0,0.3,0,0.4c0,0.4,0,0.6,0,0.8s0,0.2,0,0.3c0,0,0,0.1,0,0.1c0,0.1,0,0.1,0,0.2c0,0.1,0,0.1,0,0.2
		c0,0.1,0,0.1,0,0.1c0,0,0,0.1,0,0.1c0,0.1,0,0.1,0,0.2c0,0.1,0,0.1,0,0.2c0,0,0,0.1,0,0.1c0,0,0,0.1,0,0.1s0,0.1,0,0.1s0,0.1,0,0.1
		c0,0,0,0.1-0.1,0.2c0,0,0,0.1-0.1,0.1s0,0.1,0,0.1s0,0,0,0.1c0,0,0,0-0.1,0c0,0-0.1,0-0.1,0c0,0-0.1,0-0.1,0.1
		c-0.1,0-0.2,0-0.3,0.1s-0.4,0-0.6,0c-0.1,0-0.2,0-0.2,0S1.8,11,1.8,10.9c0,0-0.1-0.1-0.1-0.1s-0.1-0.1-0.1-0.1c0-0.1,0-0.2-0.1-0.5
		c0-0.3,0-0.5,0-0.7c0-0.1,0-0.2,0-0.3c0-0.1,0-0.3,0-0.4c0-0.1,0-0.3,0-0.4c0-0.1,0-0.2,0-0.3c0-0.1,0-0.3,0-0.5c0-0.2,0-0.6,0-1.1
		c0-0.3,0-0.6,0-1.1s0-0.8,0-1.1c0-0.7,0-1.3,0-1.7c0-0.4,0-0.6,0-0.6c0,0,0,0-0.1,0S1.2,2,1.1,2C0.9,2,0.8,2,0.6,2
		C0.5,2,0.4,2,0.3,1.9c-0.1,0-0.1-0.1-0.1-0.1v0C0.2,1.8,0.3,1.7,0.3,1.7z"/>
	<path class="st0" d="M5.6,4.2c0,0,0-0.2,0-0.3c0-0.2,0-0.4,0-0.6c0-0.4,0.1-0.7,0.1-0.8c0-0.1,0.2-0.1,0.4-0.1c0.1,0,0.1,0,0.2,0
		s0.1,0,0.1,0c0.1,0,0.1,0.1,0.1,0.2c0,0.1,0,0.3-0.1,0.5c0,0.1-0.1,0.3-0.1,0.4s0,0.2,0,0.3c0,0.1,0,0.2,0,0.3c0,0.1,0,0.2,0,0.3
		c0,0.2,0,0.3,0,0.3s0,0.1,0,0.2c0.1,0.1,0.1,0.3,0.2,0.4s0.1,0.3,0.1,0.3C6.7,5.9,6.8,6,7,6.2c0.2,0.2,0.3,0.3,0.4,0.3
		c0.1,0,0.2,0,0.2-0.1C7.7,6.3,7.8,6.1,8,5.9c0.1-0.1,0.2-0.3,0.3-0.5c0-0.1,0-0.3,0-0.6C8.4,4,8.4,3.4,8.4,3c0-0.4,0-0.7-0.1-1
		c0,0,0-0.1,0-0.1c0,0,0,0,0,0c0,0,0,0,0.1,0s0,0,0.1-0.1c0,0,0.1,0,0.1-0.1c0,0,0.1,0,0.2,0c0.1,0,0.1,0,0.2,0c0.1,0,0.1,0,0.2,0
		c0.1,0,0.1,0,0.2,0c0,0,0.1,0,0.1,0c0.1,0,0.3,0.1,0.4,0.1C10,1.8,10.1,1.9,10.2,2c0.1,0.1,0.1,0.2,0.2,0.3c0,0,0,0.1,0,0.1
		c0,0,0,0.1,0,0.1c0,0,0.1,0.1,0.1,0.1c0,0.1,0,0.2,0,0.3c0,0.1,0,0.1,0,0.2c0,0.1,0,0.1,0,0.1c0,0,0,0,0,0.1c0,0,0,0.1,0,0.1
		s0,0.1,0,0.2s0,0.1,0.1,0.2c0,0.1,0.1,0.1,0.1,0.2v0c0,0,0,0.1,0,0.1c0,0,0,0.1,0,0.1s0,0.1,0,0.1c0,0,0,0.1,0,0.1
		c0,0.1,0,0.1,0,0.2c0,0.1,0,0.1-0.1,0.3s0,0.3,0,0.4c0,0.1,0,0.3,0,0.4c0,0.1,0,0.2,0,0.2c0,0,0,0.1,0,0.3c0,0.2,0,0.4,0,0.6
		s0,0.4,0,0.6c0,0.2,0,0.3,0,0.3s0,0,0,0.1s0,0.1,0,0.2c0,0.3,0,0.5,0,0.7c0,0.2-0.1,0.3-0.1,0.4c0,0-0.1,0.1-0.1,0.1
		c0,0,0,0.1,0,0.1c0,0,0,0.1,0,0.1c0,0,0,0.1,0,0.1s0,0.1-0.1,0.1s0,0.1,0,0.1c0,0.1,0,0.2-0.1,0.3c0,0.1-0.1,0.1-0.2,0.2
		c0,0-0.1,0-0.1,0.1c-0.1,0-0.1,0.1-0.2,0.2C9.3,10.8,9.1,11,8.9,11c-0.2,0.1-0.5,0.1-1,0.2c-0.1,0-0.3,0-0.5,0
		c-0.1,0-0.1-0.1-0.2-0.2c-0.1-0.1-0.2-0.2-0.3-0.3c-0.1-0.1-0.1-0.2-0.2-0.4c0-0.1,0-0.2,0-0.3c0,0,0.1-0.1,0.2-0.1
		c0.1,0,0.1,0,0.1,0c0,0,0.1,0.1,0.1,0.2c0.1,0.1,0.2,0.3,0.3,0.4c0.1,0.1,0.2,0.2,0.3,0.2c0.1,0,0.1,0,0.2,0c0,0,0.1,0,0.2-0.1
		c0.2-0.1,0.3-0.2,0.3-0.2s0.1-0.2,0.1-0.3c0-0.1,0-0.2,0-0.3s0-0.3,0-0.4c0-0.2,0-0.4-0.1-0.7c0-0.3,0-0.6-0.1-0.8
		c0-0.1,0-0.3,0-0.4s0-0.2,0-0.3c0-0.1,0-0.2,0-0.3s0-0.1,0-0.2c0,0,0-0.1,0-0.1c-0.1,0-0.1,0.1-0.3,0.2C7.8,6.9,7.8,6.9,7.7,7
		S7.5,7,7.5,7c-0.3,0-0.5,0-0.7,0C6.6,7,6.5,6.9,6.3,6.7C6.1,6.5,6,6.4,5.9,6.2C5.8,6,5.7,5.8,5.7,5.5c0-0.1,0-0.2,0-0.3
		s0-0.2,0-0.2c0-0.1,0-0.2,0-0.3c0-0.1,0-0.2,0-0.2C5.6,4.3,5.6,4.3,5.6,4.2z"/>
	<path class="st0" d="M13,2.1c0.1,0,0.1,0.1,0.2,0.1c0.1,0,0.1,0.1,0.1,0.1c0,0,0.1,0.1,0.1,0.2c0,0.1,0.1,0.2,0.1,0.4
		c0,0,0,0.1,0,0.1c0,0,0,0,0,0s0,0,0.1-0.1c0,0,0.1-0.1,0.1-0.2c0.1-0.2,0.2-0.3,0.3-0.4c0.1-0.1,0.2-0.1,0.3-0.2
		c0.1,0,0.2-0.1,0.4-0.1s0.2,0,0.3,0.1c0,0,0.1,0,0.1,0c0,0,0.1,0,0.1,0c0,0,0.1,0,0.1,0c0,0,0.1,0,0.1,0.1c0,0,0.1,0.2,0.2,0.4
		c0.1,0.2,0.1,0.3,0.1,0.4c0,0,0,0.1,0,0.1c0,0.1,0.1,0.2,0.1,0.3c0.1,0.2,0.1,0.3,0.1,0.4c0,0.1,0,0.2,0,0.5c0,0.1,0,0.2,0,0.2
		c0,0.2,0,0.4,0,0.5c0,0.2-0.1,0.4-0.1,0.5c0,0,0,0.1-0.1,0.1s0,0.1,0,0.2c0,0.1,0,0.2,0,0.3c0,0.1-0.1,0.3-0.1,0.5
		c0,0.1,0,0.1-0.1,0.2c0,0.1,0,0.1-0.1,0.1c0,0,0,0-0.1,0.1c0,0,0,0.1,0,0.1c0,0,0,0.1-0.1,0.1s-0.1,0.1-0.1,0.2
		c-0.1,0.2-0.3,0.3-0.5,0.4C14.4,7.9,14.2,8,14,8c-0.1,0-0.2,0-0.2,0s-0.1,0-0.2,0c0,0-0.1,0-0.1-0.1c-0.1,0-0.1,0-0.2,0
		c-0.1,0-0.1,0-0.2,0c0,0-0.1,0-0.1,0.1c0,0.1,0,0.2,0,0.5c0,0.3,0,0.5,0.1,0.6c0,0.1,0,0.1,0,0.2c0,0.1,0,0.1,0,0.1c0,0,0,0,0,0.1
		c0,0,0,0.1,0,0.1c0,0,0,0.1,0,0.1s0,0.1,0,0.2c0,0.1,0,0.1,0,0.2c0,0.1,0,0.1,0,0.2c0,0.1,0,0.1,0,0.2c0,0,0,0.1,0,0.1
		c0,0.1-0.1,0.1-0.2,0.1c-0.1,0-0.3,0-0.5,0c0,0-0.1,0-0.1,0c-0.1,0-0.2,0-0.2,0c-0.1,0-0.1,0-0.2-0.1c-0.1-0.1-0.2-0.1-0.3-0.2
		c-0.1-0.1-0.1-0.2-0.1-0.3c0,0,0-0.1,0-0.2c0-0.1,0-0.2,0-0.4c0-0.2,0-0.3,0-0.4c0-0.1,0-0.2,0-0.2c0,0,0-0.1,0-0.3
		c0-0.2,0-0.3,0-0.4c0-0.6,0-1.2-0.1-1.9s0-1.1,0-1.4c0-0.1,0-0.2,0-0.3s0-0.3,0-0.4c0,0,0-0.1,0-0.1c0-0.1,0-0.1,0-0.2
		c0-0.1,0-0.1,0-0.1s0-0.1,0-0.2s0-0.3,0-0.4c0-0.2,0-0.3,0-0.5c0-0.2,0-0.3,0-0.3c0-0.2,0.1-0.3,0.2-0.4c0.1-0.1,0.2-0.1,0.4-0.1
		c0,0,0,0,0,0c0.1,0,0.3,0,0.4,0.1C12.7,2,12.8,2,13,2.1z M14,3.4c0,0.2-0.1,0.3-0.2,0.4c-0.1,0.1-0.1,0.3-0.2,0.4
		c-0.1,0.1-0.1,0.2-0.2,0.4c0,0.1,0,0.2,0,0.4c0,0.2,0,0.4-0.1,0.7c0,0.3-0.1,0.5-0.1,0.6c0,0.1,0,0.2,0,0.3c0,0.1,0,0.1,0,0.2
		c0,0.1,0,0.1,0,0.1c0,0,0,0,0.1,0.1c0,0,0.1,0.1,0.1,0.1c0.1,0.1,0.2,0.1,0.2,0.1c0,0,0.1,0,0.1,0c0,0,0.1,0,0.1,0
		c0.1,0,0.2,0,0.2,0c0,0,0.1-0.1,0.2-0.1C14.3,7.1,14.3,7,14.3,7c0,0,0-0.2,0.1-0.3c0-0.1,0-0.2,0-0.3s0-0.2,0.1-0.2
		c0-0.1,0-0.2,0-0.5c0-0.3,0-0.6,0-0.9c0-0.1,0-0.2,0-0.4c0-0.1,0-0.1,0-0.2c0-0.2,0-0.3,0-0.5c0-0.2,0-0.4-0.1-0.6
		c0-0.1-0.1-0.3-0.2-0.4c0,0,0,0,0,0c0,0,0,0,0,0c0,0-0.1,0.1-0.1,0.2S14.1,3.1,14,3.4z"/>
	<path class="st0" d="M18.2,2.5c0.2,0,0.3,0.1,0.4,0.1s0.2,0.1,0.2,0.1s0.1,0.1,0.1,0.3c0,0.1,0,0.2,0,0.3s0,0.1,0,0.1
		s0.1,0,0.2-0.1c0.2-0.2,0.4-0.3,0.6-0.3s0.4,0.1,0.6,0.3c0,0,0.1,0.1,0.1,0.2c0,0.1,0.1,0.1,0.1,0.2c0,0.1,0.1,0.2,0.2,0.5
		c0.1,0.2,0.1,0.3,0.1,0.4c0,0,0,0.1,0,0.1c0,0,0,0.1,0,0.1c0,0,0,0.1,0.1,0.2c0,0.1,0,0.2,0,0.2c0,0.1,0,0.2,0,0.3
		c0,0.1,0,0.2,0,0.3c0,0.1,0,0.2,0,0.3c0,0.1,0,0.3,0,0.5c0,0,0,0,0,0c0,0.2,0,0.5,0,0.7c0,0.3,0,0.4,0,0.6c0,0.1,0,0.1,0,0.2
		c0,0.1,0,0.2,0,0.2c0,0.3-0.1,0.6-0.3,1c-0.1,0.4-0.2,0.6-0.4,0.7c0,0-0.1,0.1-0.2,0.1c-0.1,0-0.1,0.1-0.2,0.1s-0.2,0.1-0.2,0.1
		c-0.1,0-0.1,0.1-0.2,0.1c0,0-0.1,0.1-0.1,0.1c-0.1,0-0.2,0-0.3,0c-0.1,0-0.1,0-0.2,0c-0.3,0-0.6,0-0.8-0.1
		c-0.3-0.1-0.5-0.3-0.7-0.5C17.1,9.8,17,9.7,17,9.6c-0.1-0.1-0.1-0.2-0.2-0.3c-0.1-0.3-0.2-0.5-0.3-0.7c-0.1-0.2-0.1-0.4-0.1-0.6
		c0-0.1,0-0.1,0-0.2c0-0.1,0-0.1,0-0.2c0,0,0-0.1,0-0.1s0-0.1,0-0.1c0-0.1,0-0.2,0-0.3c0,0,0-0.1,0-0.1c0,0,0-0.1,0-0.1
		c0,0,0-0.1,0-0.2s0-0.2,0-0.3c0-0.1,0-0.2,0-0.3c0-0.1,0-0.1,0-0.2c0-0.1,0-0.1,0-0.2c0-0.1,0-0.2,0-0.4c0-0.2,0-0.4,0-0.5
		c0-0.1,0.1-0.3,0.2-0.5c0,0,0-0.1,0.1-0.2c0-0.1,0-0.2,0.1-0.2C17,3.7,17,3.6,17.1,3.4c0.1-0.2,0.2-0.3,0.2-0.3c0,0,0.1,0,0.1-0.1
		c0,0,0.1-0.1,0.1-0.1s0-0.1,0.1-0.1s0.1-0.1,0.1-0.1c0,0,0.1-0.1,0.2-0.2C18,2.5,18.1,2.5,18.2,2.5z M19.2,3.7c0,0,0,0.1,0,0.1
		c0,0.1,0,0.1-0.1,0.2C19,4.3,19,4.5,18.9,4.6S18.8,5,18.8,5.2c0,0.2-0.1,0.4-0.1,0.4c0,0.1-0.1,0.1-0.2,0.1c0,0-0.1,0-0.1,0
		c0,0-0.1,0-0.1,0c-0.1,0-0.1,0-0.2,0.1S18.1,6,18.1,6.2c0,0.1,0,0.2,0,0.3c0,0.1,0,0.2,0,0.2c0,0,0,0.1,0,0.2c0,0.1,0,0.2,0,0.2
		s0,0.2,0,0.2s0,0.1,0,0.2c0,0.1,0,0.2,0,0.3c0,0.1,0,0.1,0,0.1c0,0,0,0.1,0,0.2c0,0,0,0.1,0,0.1c0,0.1,0,0.1,0,0.2
		c0,0.2,0,0.3,0,0.4C18,8.9,18,9,18.1,9.2c0.1,0.2,0.3,0.5,0.5,0.6s0.4,0.3,0.5,0.3c0.1,0,0.2,0,0.4-0.1c0.2-0.1,0.3-0.2,0.3-0.2
		c0-0.1,0.1-0.2,0.2-0.4c0.1-0.2,0.2-0.5,0.2-0.7c0-0.2,0.1-0.4,0.1-0.7c0-0.3,0-0.5,0-0.8c0,0,0,0,0,0c0-0.2,0-0.4,0-0.5
		c0-0.2,0-0.3,0-0.5c0-0.1,0-0.3-0.1-0.4c0-0.2,0-0.3,0-0.5c0-0.3-0.1-0.6-0.1-0.8c0-0.2-0.1-0.4-0.2-0.6c-0.1-0.2-0.2-0.3-0.2-0.4
		c-0.1-0.1-0.1-0.1-0.1-0.1c0,0-0.1,0-0.2,0.1C19.2,3.6,19.2,3.7,19.2,3.7z"/>
	<path class="st0" d="M21.4,2.3C21.4,2.3,21.5,2.3,21.4,2.3c0.1,0,0.1-0.1,0.1-0.1c0.1-0.1,0.2-0.1,0.4-0.1c0.1,0,0.2,0,0.3,0
		c0.3,0,0.6,0.1,0.9,0.2c0.2,0.1,0.4,0.2,0.5,0.4s0.1,0.4,0.1,0.7c0,0.1,0,0.3,0,0.5c0,0.2,0,0.3,0,0.3s0,0.1,0,0.1c0,0,0,0.1,0,0.1
		c0,0.1,0,0.2,0.1,0.3c0,0.1,0.1,0.3,0.1,0.5c0.1,0.2,0.2,0.5,0.3,0.8c0.1,0.3,0.2,0.4,0.3,0.6c0,0,0,0.1,0.1,0.1c0,0,0,0.1,0,0.1
		s0,0.1,0.1,0.2c0.1,0.1,0.1,0.3,0.2,0.4C24.9,7.7,25,7.8,25,7.9c0.1,0.1,0.1,0.2,0.1,0.2c0,0,0,0,0,0.1c0,0,0.1,0.1,0.1,0.1
		c0,0,0.1,0.1,0.1,0.1s0.1,0.1,0.1,0.2c0.1,0.2,0.2,0.3,0.2,0.2c0-0.1,0-0.4,0-0.9c0-0.4,0-0.9,0-1.3c0-0.5,0-0.8-0.1-1.2
		c0-0.2,0-0.3,0-0.5c0-0.1,0-0.2,0-0.3c0-0.1,0-0.2,0-0.5c0-0.3,0-0.4,0-0.4c0,0,0-0.1,0-0.1c0-0.1,0-0.2,0-0.3c0-0.2,0-0.4,0-0.5
		c0-0.1,0-0.2,0-0.3c0,0,0.1-0.1,0.3-0.2c0.1-0.1,0.2-0.1,0.2-0.1c0,0,0,0,0,0.1c0,0.1,0,0.2,0,0.3c0,0.1,0,0.2,0,0.4s0,0.3,0,0.5
		c0,0.3,0,0.5,0.1,0.8c0,0.2,0,0.4,0,0.4c0,0,0,0.1,0,0.2c0,0.1,0,0.2,0,0.4c0,0.1,0,0.4,0,0.8c0,0.4,0,0.8,0,1.2c0,0.4,0,0.8,0,1.2
		s0,0.7,0,0.9c0,0,0,0,0,0c0,0.3,0,0.5,0,0.6c0,0.1-0.1,0.1-0.3,0c-0.1,0-0.1-0.1-0.2-0.1c-0.1,0-0.1-0.1-0.2-0.1
		c-0.1-0.1-0.2-0.3-0.4-0.5c-0.1-0.2-0.2-0.4-0.3-0.5c0-0.1-0.1-0.2-0.1-0.2s-0.1-0.2-0.1-0.2c0,0-0.1-0.1-0.1-0.2
		c0-0.1-0.1-0.1-0.1-0.2c-0.1-0.2-0.2-0.4-0.3-0.6c-0.1-0.2-0.2-0.3-0.2-0.3c0,0-0.1,0-0.1,0.1c0,0.1,0,0.3,0,0.5c0,0.1,0,0.2,0,0.3
		c0,0.1,0,0.2,0,0.2c0,0.1,0,0.2-0.1,0.5c0,0.3,0,0.4,0,0.6c0,0,0,0.1,0,0.1c0,0,0,0.1,0,0.1c0,0,0,0.1,0,0.1c0,0,0,0.1,0,0.2
		c0,0.2,0,0.4,0,0.6c0,0.2-0.1,0.3-0.2,0.3c0,0-0.1,0-0.1,0.1c0,0-0.1,0.1-0.1,0.1c0,0-0.1,0.1-0.1,0.1s-0.1,0-0.2,0h0
		c-0.1,0-0.1,0-0.2,0s-0.1,0-0.2-0.1c-0.2-0.1-0.3-0.3-0.4-0.5s-0.1-0.6-0.1-1.1c0-0.1,0-0.2,0-0.3c0-0.1,0-0.2,0-0.2
		c0-0.2,0-0.4,0-0.6c0-0.2,0-0.4,0-0.5c0,0,0-0.1,0-0.2c0-0.1,0-0.1,0-0.2c0-0.2-0.1-0.4-0.1-0.6s0-0.4,0-0.8c0-0.2,0-0.4,0-0.6
		s0-0.3,0-0.3c0,0,0-0.1,0-0.3c0-0.2,0-0.4,0-0.6c0-0.2,0-0.5,0-0.8c0-0.3,0-0.5,0-0.6c0-0.1,0-0.2,0-0.3
		C21.4,2.4,21.4,2.4,21.4,2.3C21.4,2.4,21.4,2.3,21.4,2.3z"/>
	<path class="st0" d="M26.5,6c0-0.1,0-0.2,0.1-0.2c0-0.1,0.1-0.1,0.2-0.1c0,0,0,0,0,0c0.1,0,0.2,0,0.4,0.1c0.2,0.1,0.4,0.1,0.4,0.2
		c0,0,0.1,0.1,0.1,0.1c0,0,0,0.1,0,0.2c0,0,0,0.1,0,0.2c0,0.1,0,0.2,0,0.3c0,0.1,0,0.2,0,0.5s0,0.4,0,0.6s0,0.4,0,0.6
		c0,0.2,0,0.3,0,0.4c0,0.1,0,0.1,0,0.2c0,0.1,0,0.2,0,0.3c0,0.2,0,0.4,0,0.4s0,0.1,0.1,0.2c0,0,0.1,0,0.1,0c0,0,0.1,0,0.1-0.1
		c0,0,0.1-0.1,0.2-0.3s0.2-0.3,0.4-0.5c0.1-0.1,0.2-0.2,0.2-0.3c0.1-0.1,0.1-0.2,0.1-0.2c0-0.1,0.1-0.2,0.3-0.3
		c0.1-0.1,0.2-0.1,0.3-0.1c0.1,0,0.1,0,0.1,0.1v0c0,0-0.1,0.2-0.2,0.3c0,0.1-0.1,0.1-0.1,0.2s0,0.1,0,0.1c0,0,0,0.1-0.1,0.2
		C29.1,8.8,29.1,8.9,29,9c-0.2,0.4-0.5,0.7-0.7,0.9c-0.2,0.2-0.4,0.3-0.5,0.3c-0.5,0-0.8-0.1-1-0.3c-0.2-0.2-0.3-0.4-0.4-0.8
		c0-0.1,0-0.3,0-0.5c0-0.2,0-0.4,0-0.7c0,0,0,0,0-0.1c0-0.4,0-0.8,0-1.2C26.5,6.3,26.5,6.1,26.5,6z M26.6,3.8c0-0.1,0-0.2,0.1-0.2
		s0.1-0.1,0.1-0.1s0.1-0.1,0.1-0.1c0,0,0,0,0,0c0,0,0.1,0,0.2,0c0.1,0,0.1,0,0.2,0.1s0.1,0,0.2,0.1c0,0,0.1,0,0.2,0.1
		c0.1,0,0.1,0.1,0.1,0.2c0,0,0,0,0,0c0,0.1,0,0.3,0,0.5c0,0.2,0,0.3-0.1,0.4c0,0.1-0.1,0.2-0.1,0.2c0,0-0.1,0.1-0.2,0.1
		c-0.1,0-0.2,0-0.2,0c0,0,0,0,0,0c-0.1,0-0.2,0-0.3-0.1c-0.1-0.1-0.2-0.1-0.3-0.2c0,0-0.1-0.1-0.1-0.3c0-0.1,0-0.2,0-0.3
		c0,0,0,0,0,0C26.5,4.1,26.6,4,26.6,3.8z"/>
	<path class="st0" d="M32.1,6.2c0,0,0.1,0.1,0.1,0.1c0,0,0.1,0.1,0.1,0.1c0,0,0,0.1,0,0.1c0,0,0,0.1,0,0.1c0,0.1,0,0.2,0,0.4
		c0,0.1,0,0.2-0.1,0.4c0,0.1-0.1,0.2-0.1,0.2c0,0-0.1,0.1-0.1,0.2C31.9,7.9,31.8,8,31.8,8c-0.1,0-0.2,0-0.4,0.1c-0.1,0-0.2,0-0.3,0
		s-0.2,0-0.2,0c-0.1,0-0.2,0-0.2,0c0,0,0,0-0.1,0c0,0,0,0.1,0,0.2c0,0.1,0,0.2,0,0.4c0,0.2,0,0.3,0,0.4c0,0.1,0,0.2,0.1,0.3
		c0.1,0.3,0.2,0.6,0.4,0.7s0.4,0.2,0.6,0.2c0.2,0,0.5-0.2,0.8-0.4c0.3-0.3,0.5-0.7,0.8-1.3c0.1-0.2,0.2-0.3,0.3-0.5
		c0.1-0.2,0.2-0.3,0.2-0.3c0.1-0.1,0.1-0.1,0.3-0.2c0.1,0,0.2-0.1,0.2,0c0,0,0,0.1,0,0.1c0,0.1,0,0.2-0.1,0.4
		c-0.1,0.3-0.3,0.7-0.6,1c-0.1,0.2-0.3,0.4-0.4,0.6c-0.1,0.2-0.3,0.3-0.4,0.5c-0.2,0.2-0.4,0.4-0.6,0.5c-0.1,0.1-0.3,0.1-0.4,0.1
		c-0.1,0-0.1,0-0.2,0c-0.1,0-0.2,0-0.3,0c-0.1,0-0.3-0.1-0.5-0.2c-0.1,0-0.2-0.1-0.3-0.1c-0.1,0-0.2-0.1-0.3-0.2
		c-0.2-0.1-0.4-0.2-0.6-0.4c-0.2-0.1-0.3-0.3-0.4-0.5c0-0.1-0.1-0.3-0.1-0.5c0-0.1,0-0.2,0-0.4c0-0.1,0-0.2,0-0.3
		c0-0.1,0.1-0.3,0.2-0.6c0.1-0.3,0.2-0.6,0.3-0.8c0.1-0.1,0.1-0.3,0.2-0.4s0.2-0.2,0.2-0.2c0,0,0.1,0,0.2,0c0.1,0,0.2,0,0.3-0.1
		c0.1,0,0.3-0.1,0.6-0.1c0.3,0,0.5,0,0.6,0h0c0.1,0,0.1,0,0.2,0C32,6.1,32,6.1,32.1,6.2z M31,6.9c-0.1,0.1-0.2,0.2-0.3,0.4
		c-0.1,0.1-0.1,0.3-0.1,0.4c0,0,0,0,0,0c0,0,0,0.1,0,0.1c0,0,0,0,0.1,0c0,0,0.1,0,0.1,0c0.3,0,0.5-0.1,0.6-0.1s0.2-0.2,0.2-0.3
		c0,0,0-0.1,0-0.1v0c0,0,0-0.1-0.1-0.2c0-0.1-0.1-0.1-0.2-0.2c-0.1-0.1-0.2-0.1-0.3-0.1c0,0-0.1,0-0.1,0.1C31.1,6.8,31.1,6.8,31,6.9
		z"/>
	<path class="st0" d="M33.8,3.5c0-0.1,0-0.2,0-0.3s0-0.4,0-0.5c0-0.3,0-0.5,0-0.6s0-0.2,0-0.2c0,0,0-0.1,0-0.1c0,0,0,0,0.1-0.1
		c0.1-0.1,0.3-0.2,0.4-0.2c0.1,0,0.1,0,0.2,0c0.1,0,0.2,0,0.3,0c0.1,0,0.2,0.1,0.2,0.2c0.1,0.1,0.1,0.2,0.1,0.4c0,0,0,0.1,0,0.3
		c0,0.1,0,0.3,0,0.5c0,0.2,0,0.3,0,0.4c0,0.1,0,0.2,0,0.3c0,0,0,0.1,0,0.3s0,0.3,0,0.4c0,0.1,0,0.3,0,0.4c0,0.1,0,0.2,0,0.3
		c0,0.1,0,0.2,0,0.2c0,0.1,0,0.1,0,0.2s0,0.1,0,0.1c0,0,0,0.1,0,0.1c0,0,0,0,0,0.1c0,0,0,0,0,0.1c0,0,0,0.1,0,0.2s0,0.2,0,0.3
		s0,0.2,0,0.4s0,0.3,0,0.4s0,0.2,0,0.2c0,0.1,0,0.1,0,0.1c0,0,0,0,0,0.1c0,0.1,0,0.1,0,0.2c0,0.2,0,0.5,0,0.9c0,0.4,0,0.7,0,0.9
		c0,0.2,0,0.4,0,0.7c0,0.3,0.1,0.5,0.1,0.7c0,0.1,0,0.1,0,0.2c0,0.1,0,0.1,0,0.2c0,0,0,0.1,0,0.1c0,0,0,0,0,0c0,0,0,0,0,0.1
		c0,0,0,0.1,0,0.1s0,0.1,0,0.2s0,0.1,0,0.1c0,0,0,0.1,0,0.1s0,0.1,0,0.1c0,0,0,0.1,0,0.2s0.1,0.1,0.1,0.1c0-0.1,0.1-0.2,0.2-0.5
		c0.1-0.3,0.2-0.6,0.2-0.9c0.1-0.2,0.1-0.4,0.2-0.6c0-0.2,0.1-0.3,0.1-0.4c0-0.1,0-0.1,0-0.2s0-0.1,0-0.2S36.9,9,37,8.9
		c0.1-0.1,0.1-0.2,0.1-0.4c0.1-0.2,0.2-0.4,0.3-0.5c0.1-0.1,0.2-0.2,0.2-0.2c0.1-0.1,0.2-0.1,0.2-0.2c0.1-0.1,0.1-0.1,0.2-0.1
		c0,0,0,0,0,0c0,0.1,0,0.2-0.1,0.4c-0.1,0.3-0.1,0.5-0.2,0.7c0,0.2-0.1,0.3-0.1,0.5c0,0.1-0.1,0.2-0.1,0.3c0,0.1-0.1,0.2-0.2,0.3
		c-0.1,0.2-0.1,0.4-0.2,0.6c0,0.1-0.1,0.2-0.1,0.3s-0.1,0.2-0.1,0.2c-0.1,0.1-0.1,0.3-0.2,0.4c0,0.1-0.1,0.3-0.2,0.5
		c-0.1,0.2-0.1,0.4-0.2,0.5c0,0.1-0.1,0.2-0.2,0.3s-0.2,0.2-0.3,0.2s-0.2,0.1-0.4,0.1c-0.1,0-0.2,0-0.3,0c-0.1,0-0.2,0-0.3,0
		c-0.2,0-0.3-0.1-0.3-0.2c0,0,0-0.1-0.1-0.1c0,0-0.1-0.1-0.1-0.1c0,0-0.1,0-0.1,0c0,0,0,0,0-0.1c0,0,0,0,0,0c0,0,0,0-0.1,0
		c0,0-0.1,0-0.1-0.1c0,0,0,0,0,0s0,0,0-0.1s0,0,0-0.1c0-0.1-0.1-0.2-0.1-0.4S34,11.3,34,11.1c0-0.1,0-0.2-0.1-0.3c0-0.1,0-0.2,0-0.2
		c0-0.1,0-0.2,0-0.3c0-0.1,0-0.3,0-0.5c0-0.4,0-0.8,0-1.3s0-0.9,0-1.3c0,0,0-0.1,0-0.3c0-0.1,0-0.3,0-0.4c0-0.2,0-0.3,0-0.4
		c0-0.1,0-0.2,0-0.3c0-0.1,0-0.1,0-0.2c0,0,0-0.1,0-0.1c0,0,0-0.1,0-0.4c0-0.2,0-0.3,0-0.4c0,0,0,0,0-0.1s0-0.1,0-0.1
		c0-0.1,0-0.2,0-0.4c0,0,0,0,0-0.1C33.7,3.8,33.8,3.7,33.8,3.5z"/>
	<path class="st0" d="M40.5,3.8c0.1,0,0.1,0,0.2,0.1c0,0,0.1,0.1,0.2,0.2C40.9,4.2,41,4.3,41,4.3c0,0.1,0.1,0.2,0.1,0.5
		c0,0.3,0.1,0.6,0,0.8c0,0.2-0.1,0.4-0.2,0.7c-0.1,0.2-0.2,0.4-0.2,0.5c-0.1,0.1-0.2,0.2-0.3,0.2c-0.1,0.1-0.2,0.1-0.3,0.1
		c-0.1,0-0.1,0-0.2,0c-0.1,0-0.1,0-0.1-0.1s0-0.1,0-0.1c0-0.1,0.1-0.1,0.1-0.1s0.1-0.1,0.2-0.1c0.1,0,0.3-0.2,0.4-0.5
		c0.1-0.3,0.2-0.6,0.2-0.9c0-0.2,0-0.4-0.1-0.6s-0.1-0.2-0.2-0.3c-0.1,0-0.1-0.1-0.2-0.1c0,0-0.1,0-0.1,0c0,0-0.1,0.1-0.3,0.3
		c-0.1,0.2-0.3,0.4-0.4,0.6c-0.1,0.2-0.2,0.4-0.2,0.6c-0.1,0.2-0.1,0.3-0.1,0.5c0,0.2,0,0.3,0,0.3c0,0.1,0.1,0.2,0.1,0.3
		c0.1,0.2,0.2,0.4,0.2,0.5c0.1,0.2,0.1,0.3,0.2,0.3c0,0,0.1,0,0.1,0.1c0,0,0.1,0.1,0.1,0.1c0,0,0.1,0.1,0.1,0.2
		c0.1,0.1,0.1,0.1,0.2,0.2c0,0.1,0.1,0.1,0.1,0.2c0,0.1,0.1,0.1,0.1,0.1s0,0,0,0.1s0,0,0.1,0.1c0,0,0.1,0.1,0.1,0.1s0.1,0.1,0.1,0.1
		c0,0,0,0.1,0.1,0.1c0,0,0,0,0,0c0,0,0.1,0,0.2-0.1s0.2-0.1,0.2-0.2c0-0.1,0.2-0.1,0.3-0.3c0.2-0.1,0.4-0.3,0.6-0.4
		C42.2,8,42.3,8,42.4,7.9c0.1-0.1,0.2-0.1,0.2-0.1c0,0,0,0,0,0.1c0,0,0,0.1,0,0.1c0,0.1-0.1,0.2-0.1,0.3c0,0-0.1,0.1-0.1,0.1
		s-0.1,0.1-0.1,0.1c0,0-0.1,0.1-0.2,0.1c-0.1,0-0.1,0.1-0.2,0.1c0,0-0.1,0.1-0.1,0.1c0,0-0.1,0-0.1,0c0,0,0,0-0.1,0.1
		c0,0-0.1,0.1-0.2,0.1s-0.1,0.1-0.2,0.2c-0.1,0.1-0.1,0.1-0.2,0.1C41,9.4,41,9.4,41,9.4c0,0,0,0.1,0,0.2c0,0,0.1,0.1,0.1,0.2
		c0,0.1,0.1,0.2,0.1,0.2c0,0.1,0.1,0.2,0.1,0.3c0,0.1,0.1,0.2,0.1,0.3c0.1,0.1,0.1,0.2,0.1,0.3c0,0.1,0,0.2,0.1,0.4
		c0,0.1,0,0.2,0,0.4s0,0.2,0,0.3c0,0.1,0,0.2,0,0.5c0,0.2,0,0.4-0.1,0.6c0,0,0,0.1-0.1,0.2c0,0.1,0,0.1-0.1,0.2
		c0,0.2-0.1,0.3-0.2,0.4c-0.1,0.1-0.2,0.3-0.3,0.4c-0.1,0.1-0.2,0.1-0.4,0.2c-0.1,0-0.2,0-0.4,0c-0.1,0-0.2,0-0.3,0
		c-0.1,0-0.3,0-0.4,0c-0.1,0-0.2,0-0.2,0c-0.1,0-0.2,0-0.3,0c-0.1,0-0.2-0.1-0.2-0.2c0-0.1-0.1-0.1-0.1-0.2s-0.1-0.1-0.1-0.2
		c0-0.1-0.1-0.2-0.2-0.4c-0.1-0.2-0.1-0.3-0.1-0.4c0,0,0,0,0-0.1s0-0.2,0-0.3c0-0.2,0-0.3,0-0.4s0.1-0.2,0.1-0.3
		c0,0,0.1-0.1,0.1-0.2s0.1-0.2,0.1-0.2c0-0.1,0.1-0.2,0.3-0.4c0.1-0.2,0.3-0.4,0.4-0.6c0.1-0.1,0.1-0.2,0.2-0.2
		c0.1-0.1,0.1-0.1,0.2-0.2c0.1-0.1,0.1-0.1,0.2-0.2s0-0.1,0-0.1c0-0.1-0.2-0.2-0.4-0.4c-0.2-0.2-0.3-0.3-0.4-0.3
		c-0.1-0.1-0.3-0.2-0.4-0.2c-0.1,0-0.3-0.1-0.4-0.3c-0.3-0.3-0.5-0.8-0.6-1.4c-0.1-0.3-0.2-0.7-0.2-1c0-0.2,0-0.4,0.1-0.6
		c0,0,0-0.1,0.1-0.2c0-0.1,0.1-0.1,0.1-0.2c0,0,0-0.1,0.1-0.2c0-0.1,0.1-0.2,0.1-0.2s0.1-0.1,0.1-0.2c0-0.1,0.1-0.1,0.1-0.2
		c0-0.1,0.1-0.2,0.2-0.2C38.3,4,38.4,4,38.5,4c0.1,0,0.2-0.1,0.2-0.1c0.1,0,0.2-0.1,0.3-0.1c0.1,0,0.3,0,0.8,0c0.1,0,0.1,0,0.2,0
		C40.3,3.8,40.5,3.8,40.5,3.8z M39.7,10.5c-0.1,0.2-0.3,0.4-0.4,0.7c-0.2,0.2-0.3,0.5-0.4,0.8c0,0,0,0.1-0.1,0.3
		c0,0.1-0.1,0.2-0.1,0.2c0,0,0,0.1,0,0.1c0,0,0,0.1,0,0.1c0,0.1,0.1,0.2,0.1,0.4c0.1,0.1,0.1,0.2,0.2,0.3c0.1,0.1,0.1,0.2,0.2,0.2
		c0.2,0.1,0.3,0.2,0.5,0.2c0,0,0.1,0,0.1,0c0.1,0,0.2,0,0.2-0.1c0,0,0.1-0.1,0.2-0.3c0.1-0.2,0.1-0.2,0.1-0.3c0,0,0,0,0-0.1
		c0,0,0-0.1,0-0.2c0-0.1,0.1-0.2,0.1-0.2c0,0,0,0,0.1,0c0.1,0,0.1,0,0.1-0.1c0,0,0-0.1,0-0.2c0-0.1,0-0.3,0-0.5
		c0-0.4-0.1-0.7-0.2-0.8s-0.1-0.3-0.2-0.5c0-0.1,0-0.1-0.1-0.2s0-0.1,0-0.1c0,0,0-0.1,0-0.1c0,0,0,0,0,0h0h0c-0.1,0-0.1,0.1-0.2,0.1
		C39.8,10.4,39.7,10.5,39.7,10.5z"/>
</g>
</svg>
